<svg width="24" height="24" viewBox="0 0 24 24" fill="none" xmlns="http://www.w3.org/2000/svg">
<path fill-rule="evenodd" clip-rule="evenodd" d="M14.4242 11.0304C14.4242 12.9048 12.9047 14.4243 11.0303 14.4243C9.15584 14.4243 7.63632 12.9048 7.63632 11.0304C7.63632 9.15596 9.15584 7.63645 11.0303 7.63645C12.9047 7.63645 14.4242 9.15596 14.4242 11.0304ZM13.754 14.4397C13.0075 15.037 12.0606 15.394 11.0303 15.394C8.62029 15.394 6.66663 13.4404 6.66663 11.0304C6.66663 8.62042 8.62029 6.66675 11.0303 6.66675C13.4402 6.66675 15.3939 8.62042 15.3939 11.0304C15.3939 12.0607 15.0369 13.0076 14.4396 13.7541L17.1913 16.5057C17.3806 16.6951 17.3806 17.0021 17.1913 17.1915C17.0019 17.3807 16.6949 17.3807 16.5056 17.1915L13.754 14.4397Z" fill="black"/>
</svg>
